[Header]
FileType HTR
DataType HTRS
FileVersion 1
NumSegments 64
NumFrames 3
DataFrameRate 30
EulerRotationOrder ZYX
CalibrationUnits mm
RotationUnits Degrees
GlobalAxisofGravity Y
BoneLengthAxis Y
ScaleFactor 1.0
[SegmentNames&Hierarchy]
Hips	GLOBAL
Spine	Hips
Spine1	Spine
Spine2	Spine1
Neck	Spine2
Head	Neck
LeftEye	Head
RightEye	Head
LeftShoulder	Spine2
LeftArm	LeftShoulder
LeftForeArm	LeftArm
LeftHand	LeftForeArm
LeftHandThumb1	LeftHand
LeftHandThumb2	LeftHandThumb1
LeftHandThumb3	LeftHandThumb2
LeftHandThumb4	LeftHandThumb3
LeftHandIndex1	LeftHand
LeftHandIndex2	LeftHandIndex1
LeftHandIndex3	LeftHandIndex2
LeftHandIndex4	LeftHandIndex3
LeftHandMiddle1	LeftHand
LeftHandMiddle2	LeftHandMiddle1
LeftHandMiddle3	LeftHandMiddle2
LeftHandMiddle4	LeftHandMiddle3
LeftHandRing1	LeftHand
LeftHandRing2	LeftHandRing1
LeftHandRing3	LeftHandRing2
LeftHandRing4	LeftHandRing3
LeftHandPinky1	LeftHand
LeftHandPinky2	LeftHandPinky1
LeftHandPinky3	LeftHandPinky2
LeftHandPinky4	LeftHandPinky3
RightShoulder	Spine2
RightArm	RightShoulder
RightForeArm	RightArm
RightHand	RightForeArm
RightHandPinky1	RightHand
RightHandPinky2	RightHandPinky1
RightHandPinky3	RightHandPinky2
RightHandPinky4	RightHandPinky3
RightHandRing1	RightHand
RightHandRing2	RightHandRing1
RightHandRing3	RightHandRing2
RightHandRing4	RightHandRing3
RightHandMiddle1	RightHand
RightHandMiddle2	RightHandMiddle1
RightHandMiddle3	RightHandMiddle2
RightHandMiddle4	RightHandMiddle3
RightHandIndex1	RightHand
RightHandIndex2	RightHandIndex1
RightHandIndex3	RightHandIndex2
RightHandIndex4	RightHandIndex3
RightHandThumb1	RightHand
RightHandThumb2	RightHandThumb1
RightHandThumb3	RightHandThumb2
RightHandThumb4	RightHandThumb3
LeftUpLeg	Hips
LeftLeg	LeftUpLeg
LeftFoot	LeftLeg
LeftToeBase	LeftFoot
RightUpLeg	Hips
RightLeg	RightUpLeg
RightFoot	RightLeg
RightToeBase	RightFoot
[BasePosition]
Hips	0	0	0	0	0	0	1
Spine	0	0	0	0	0	0	1
Spine1	0	0	0	0	0	0	1
Spine2	0	0	0	0	0	0	1
Neck	0	0	0	0	0	0	1
Head	0	0	0	0	0	0	1
LeftEye	0	0	0	0	0	0	1
RightEye	0	0	0	0	0	0	1
LeftShoulder	0	0	0	0	0	0	1
LeftArm	0	0	0	0	0	0	1
LeftForeArm	0	0	0	0	0	0	1
LeftHand	0	0	0	0	0	0	1
LeftHandThumb1	0	0	0	0	0	0	1
LeftHandThumb2	0	0	0	0	0	0	1
LeftHandThumb3	0	0	0	0	0	0	1
LeftHandThumb4	0	0	0	0	0	0	1
LeftHandIndex1	0	0	0	0	0	0	1
LeftHandIndex2	0	0	0	0	0	0	1
LeftHandIndex3	0	0	0	0	0	0	1
LeftHandIndex4	0	0	0	0	0	0	1
LeftHandMiddle1	0	0	0	0	0	0	1
LeftHandMiddle2	0	0	0	0	0	0	1
LeftHandMiddle3	0	0	0	0	0	0	1
LeftHandMiddle4	0	0	0	0	0	0	1
LeftHandRing1	0	0	0	0	0	0	1
LeftHandRing2	0	0	0	0	0	0	1
LeftHandRing3	0	0	0	0	0	0	1
LeftHandRing4	0	0	0	0	0	0	1
LeftHandPinky1	0	0	0	0	0	0	1
LeftHandPinky2	0	0	0	0	0	0	1
LeftHandPinky3	0	0	0	0	0	0	1
LeftHandPinky4	0	0	0	0	0	0	1
RightShoulder	0	0	0	0	0	0	1
RightArm	0	0	0	0	0	0	1
RightForeArm	0	0	0	0	0	0	1
RightHand	0	0	0	0	0	0	1
RightHandPinky1	0	0	0	0	0	0	1
RightHandPinky2	0	0	0	0	0	0	1
RightHandPinky3	0	0	0	0	0	0	1
RightHandPinky4	0	0	0	0	0	0	1
RightHandRing1	0	0	0	0	0	0	1
RightHandRing2	0	0	0	0	0	0	1
RightHandRing3	0	0	0	0	0	0	1
RightHandRing4	0	0	0	0	0	0	1
RightHandMiddle1	0	0	0	0	0	0	1
RightHandMiddle2	0	0	0	0	0	0	1
RightHandMiddle3	0	0	0	0	0	0	1
RightHandMiddle4	0	0	0	0	0	0	1
RightHandIndex1	0	0	0	0	0	0	1
RightHandIndex2	0	0	0	0	0	0	1
RightHandIndex3	0	0	0	0	0	0	1
RightHandIndex4	0	0	0	0	0	0	1
RightHandThumb1	0	0	0	0	0	0	1
RightHandThumb2	0	0	0	0	0	0	1
RightHandThumb3	0	0	0	0	0	0	1
RightHandThumb4	0	0	0	0	0	0	1
LeftUpLeg	0	0	0	0	0	0	1
LeftLeg	0	0	0	0	0	0	1
LeftFoot	0	0	0	0	0	0	1
LeftToeBase	0	0	0	0	0	0	1
RightUpLeg	0	0	0	0	0	0	1
RightLeg	0	0	0	0	0	0	1
RightFoot	0	0	0	0	0	0	1
RightToeBase	0	0	0	0	0	0	1
[Hips]
24	17.72520447	964.4190674	1309.662964	2.420245171	6.881556511	2.795572519	1.0
25	11.02353477	957.4592285	1373.656616	1.705561996	6.197011471	1.653414845	1.0
26	4.274551392	953.3794556	1434.522827	1.553251386	5.577075958	1.064280629	1.0
[Spine]
24	0	101.8159943	1.315000057	4.190578461	-6.254550457	-3.25319171	1.0
25	0	101.8159943	1.315000057	4.345500469	-6.242451191	-1.5921067	1.0
26	0	101.8159943	1.315000057	4.055361271	-6.962378502	-0.8435533047	1.0
[Spine1]
24	0	100.8349991	-10.00800037	2.218029737	-8.157222748	2.717156649	1.0
25	0	100.8349991	-10.00800037	2.159215212	-8.009507179	2.518098831	1.0
26	0	100.8349991	-10.00800037	2.073140621	-7.569748878	2.553982019	1.0
[Spine2]
24	0	91	-13.73399925	2.05552268	-8.073522568	2.982540846	1.0
25	0	91	-13.73399925	2.005362511	-7.948023796	2.77459693	1.0
26	0	91	-13.73399925	1.885483027	-7.529153347	2.780510664	1.0
[Neck]
24	0	166.7169952	-25.16200066	-0.5300583839	5.341243267	-1.839077234	1.0
25	0	166.7169952	-25.16200066	-0.3519122303	5.264142513	-0.8763934374	1.0
26	0	166.7169952	-25.16200066	-0.05850331485	5.080913067	0.01643095538	1.0
[Head]
24	0	96.17900085	16.84999847	-5.407316208	10.78633881	-3.371170759	1.0
25	0	96.17900085	16.84999847	-5.962985992	11.43058586	-4.586303711	1.0
26	0	96.17900085	16.84999847	-5.716938019	12.46205425	-5.873445511	1.0
[LeftEye]
24	30.6760006	64.09500122	92.83599854	0	0	0	1.0
25	30.6760006	64.09500122	92.83599854	0	0	0	1.0
26	30.6760006	64.09500122	92.83599854	0	0	0	1.0
[RightEye]
24	-30.6760006	64.09500122	92.83499908	0	0	0	1.0
25	-30.6760006	64.09500122	92.83499908	0	0	0	1.0
26	-30.6760006	64.09500122	92.83499908	0	0	0	1.0
[LeftShoulder]
24	45.70400238	109.4599991	-26.28000069	2.904411554	-10.49065685	-13.86665154	1.0
25	45.70400238	109.4599991	-26.28000069	2.810127735	-10.08595943	-13.79247665	1.0
26	45.70400238	109.4599991	-26.28000069	2.677124023	-9.506825447	-13.68594837	1.0
[LeftArm]
24	105.923996	-5.24600029	-22.32099915	22.80043983	-24.73339272	-41.09777832	1.0
25	105.923996	-5.24600029	-22.32099915	21.83076668	-22.78167534	-42.94086075	1.0
26	105.923996	-5.24600029	-22.32099915	20.96329308	-19.39168358	-46.44962692	1.0
[LeftForeArm]
24	278.414978	-0.0009999999311	0	1.182491178e-05	-58.30471039	-0.0002082315041	1.0
25	278.414978	-0.0009999999311	0	7.662628377e-06	-56.45148087	-0.0001949920988	1.0
26	278.414978	-0.0009999999311	0	8.497364433e-06	-52.75354385	-0.0002323253866	1.0
[LeftHand]
24	283.2879944	0	0	0.8079881668	-0.5529158711	16.24057007	1.0
25	283.2879944	0	0	0.8596781492	-1.212192893	16.93716431	1.0
26	283.2879944	0	0	0.4990550876	-1.486287713	18.5925293	1.0
[LeftHandThumb1]
24	24.6609993	-15.75	26.8239994	5.839803696	2.504242897	11.148386	1.0
25	24.6609993	-15.75	26.8239994	5.839803696	2.504242897	11.148386	1.0
26	24.6609993	-15.75	26.8239994	5.839803696	2.504242897	11.148386	1.0
[LeftHandThumb2]
24	32.29800034	-18.64699936	18.64699936	2.618764162	9.80447197	5.578222752	1.0
25	32.29800034	-18.64699936	18.64699936	4.208028793	11.85983562	6.327170372	1.0
26	32.29800034	-18.64699936	18.64699936	6.026762962	13.67527962	7.247690201	1.0
[LeftHandThumb3]
24	26.52600098	-15.31499958	15.31499958	0.1414217949	-5.352705479	20.92941856	1.0
25	26.52600098	-15.31499958	15.31499958	-0.2020378113	-6.108380795	21.24417305	1.0
26	26.52600098	-15.31499958	15.31499958	-0.5965710878	-6.976623535	21.64916229	1.0
[LeftHandThumb4]
24	19.54599953	-11.28499985	11.28499985	0	0	0	1.0
25	19.54599953	-11.28499985	11.28499985	0	0	0	1.0
26	19.54599953	-11.28499985	11.28499985	0	0	0	1.0
[LeftHandIndex1]
24	91.09299469	-5.170999527	22.60099792	-0.8310443163	-2.393237114	-20.92377853	1.0
25	91.09299469	-5.170999527	22.60099792	-0.8334006071	-2.081247568	-21.49584961	1.0
26	91.09299469	-5.170999527	22.60099792	-0.7754496336	-1.700140715	-21.53119469	1.0
[LeftHandIndex2]
24	36.76399994	0	0	-0.1985448003	1.51035285	-14.97779942	1.0
25	36.76399994	0	0	-0.1983424276	1.509601355	-14.97014141	1.0
26	36.76399994	0	0	-0.1976343244	1.506905198	-14.94299793	1.0
[LeftHandIndex3]
24	28.83100128	0	0	-0.1985584348	1.510348916	-14.97780609	1.0
25	28.83100128	0	0	-0.1983454376	1.509592414	-14.97015476	1.0
26	28.83100128	0	0	-0.1976390332	1.506939173	-14.94299316	1.0
[LeftHandIndex4]
24	23.92700005	0	0	0	0	0	1.0
25	23.92700005	0	0	0	0	0	1.0
26	23.92700005	0	0	0	0	0	1.0
[LeftHandMiddle1]
24	95.33399963	0	0	-1.783881545	3.836827278	-28.60744095	1.0
25	95.33399963	0	0	-1.842205763	4.043148041	-29.28484917	1.0
26	95.33399963	0	0	-1.867553949	4.242307663	-29.57544327	1.0
[LeftHandMiddle2]
24	36.98199844	0	0	-0.1238189042	1.196660161	-11.81474876	1.0
25	36.98199844	0	0	-0.1234056354	1.194603443	-11.79410076	1.0
26	36.98199844	0	0	-0.1229976788	1.192680597	-11.77492809	1.0
[LeftHandMiddle3]
24	29.50900078	0	0	-0.1688295156	1.394553065	-13.80519295	1.0
25	29.50900078	0	0	-0.1683247387	1.392523766	-13.78460598	1.0
26	29.50900078	0	0	-0.1678616405	1.390625834	-13.7654953	1.0
[LeftHandMiddle4]
24	28.3390007	0	0	0	0	0	1.0
25	28.3390007	0	0	0	0	0	1.0
26	28.3390007	0	0	0	0	0	1.0
[LeftHandRing1]
24	91.04499817	-0.4390000105	-18.65100098	-1.924938679	6.578782082	-30.24967194	1.0
25	91.04499817	-0.4390000105	-18.65100098	-1.940165401	6.765919685	-30.42801857	1.0
26	91.04499817	-0.4390000105	-18.65100098	-1.93360424	6.958673477	-30.35782814	1.0
[LeftHandRing2]
24	31.54000092	0	0	-0.3357987106	1.95222652	-19.51832962	1.0
25	31.54000092	0	0	-0.3359182477	1.952578306	-19.52190018	1.0
26	31.54000092	0	0	-0.3336100578	1.945970893	-19.4532814	1.0
[LeftHandRing3]
24	29.37700081	0	0	-0.406901449	2.142120838	-21.50829506	1.0
25	29.37700081	0	0	-0.407017976	2.142407179	-21.51132965	1.0
26	29.37700081	0	0	-0.4044342637	2.135839462	-21.44202423	1.0
[LeftHandRing4]
24	26.47500038	0	0	0	0	0	1.0
25	26.47500038	0	0	0	0	0	1.0
26	26.47500038	0	0	0	0	0	1.0
[LeftHandPinky1]
24	80.77799988	-4.887000084	-38.06099701	-2.249749184	4.503264427	-33.76718521	1.0
25	80.77799988	-4.887000084	-38.06099701	-2.289627552	4.354391098	-34.17670822	1.0
26	80.77799988	-4.887000084	-38.06099701	-2.344510555	4.325053692	-34.7490387	1.0
[LeftHandPinky2]
24	36	0	0	-0.2730104923	1.765170932	-17.58228493	1.0
25	36	0	0	-0.2707807422	1.758098483	-17.50946236	1.0
26	36	0	0	-0.2664435208	1.744328856	-17.36787033	1.0
[LeftHandPinky3]
24	21.14200211	0	0	-0.2729771733	1.765132308	-17.58164597	1.0
25	21.14200211	0	0	-0.2707309723	1.758024693	-17.50852966	1.0
26	21.14200211	0	0	-0.266415	1.744240642	-17.36682701	1.0
[LeftHandPinky4]
24	19.75699997	0	0	0	0	0	1.0
25	19.75699997	0	0	0	0	0	1.0
26	19.75699997	0	0	0	0	0	1.0
[RightShoulder]
24	-45.70000076	109.4620056	-26.28000069	1.095256448	1.84565556	14.09572411	1.0
25	-45.70000076	109.4620056	-26.28000069	1.167482734	2.040820599	14.65925789	1.0
26	-45.70000076	109.4620056	-26.28000069	1.284513116	2.391624928	15.29473972	1.0
[RightArm]
24	-105.9280014	-5.248000145	-22.32099915	17.00842857	-8.872372627	59.17878723	1.0
25	-105.9280014	-5.248000145	-22.32099915	18.37714577	-7.207899094	57.86512756	1.0
26	-105.9280014	-5.248000145	-22.32099915	20.57150269	-4.541955471	56.03741074	1.0
[RightForeArm]
24	-278.414978	0	0	3.047787686e-06	9.705857277	1.014234113e-05	1.0
25	-278.414978	0	0	-1.876406714e-06	9.062161446	-1.649328397e-06	1.0
26	-278.414978	0	0	-5.042293765e-07	9.311465263	-7.927686056e-06	1.0
[RightHand]
24	-283.2879944	0	0.0009999999311	3.92681694	-7.478555679	21.18578148	1.0
25	-283.2879944	0	0.0009999999311	3.786213398	-10.08514309	22.34058571	1.0
26	-283.2879944	0	0.0009999999311	4.37055397	-12.34651661	23.19797897	1.0
[RightHandPinky1]
24	-80.76699829	-4.885000229	-38.06000137	-1.589427471	-3.754172325	27.2452774	1.0
25	-80.76699829	-4.885000229	-38.06000137	-1.751322746	-3.022925377	27.73304939	1.0
26	-80.76699829	-4.885000229	-38.06000137	-2.072226524	-1.70347178	28.99066734	1.0
[RightHandPinky2]
24	-36	0	0.0009999999311	-0.5446907282	-2.180735826	28.06375694	1.0
25	-36	0	0.0009999999311	-0.5385252833	-2.169171333	27.90180969	1.0
26	-36	0	0.0009999999311	-0.5528150201	-2.195963383	28.27722359	1.0
[RightHandPinky3]
24	-21.14200211	0	0	-0.1655265242	-1.228176713	15.34905529	1.0
25	-21.14200211	0	0	-0.1617841274	-1.214529395	15.17421627	1.0
26	-21.14200211	0	0	-0.1692481339	-1.241704822	15.5223732	1.0
[RightHandPinky4]
24	-19.75699997	0	0	0	0	0	1.0
25	-19.75699997	0	0	0	0	0	1.0
26	-19.75699997	0	0	0	0	0	1.0
[RightHandRing1]
24	-91.03599548	-0.4390000105	-18.65100098	-1.186136007	-2.877098322	22.58447266	1.0
25	-91.03599548	-0.4390000105	-18.65100098	-1.213469148	-2.771208048	22.9810276	1.0
26	-91.03599548	-0.4390000105	-18.65100098	-1.333597422	-2.329517603	24.71727562	1.0
[RightHandRing2]
24	-31.54000092	0	0	-1.493612647	-3.40780139	47.32474136	1.0
25	-31.54000092	0	0	-1.485170841	-3.400015116	47.18255615	1.0
26	-31.54000092	0	0	-1.479206443	-3.394488335	47.08189392	1.0
[RightHandRing3]
24	-29.37700081	0	0	-0.3699710071	-1.815360069	23.03667259	1.0
25	-29.37700081	0	0	-0.3654774129	-1.804772139	22.89454079	1.0
26	-29.37700081	0	0	-0.362285465	-1.797184467	22.79272652	1.0
[RightHandRing4]
24	-26.47500038	0	0	0	0	0	1.0
25	-26.47500038	0	0	0	0	0	1.0
26	-26.47500038	0	0	0	0	0	1.0
[RightHandMiddle1]
24	-95.32500458	0	0	-0.9421200752	-0.6179676652	18.9666729	1.0
25	-95.32500458	0	0	-0.9596379995	-0.7024485469	19.23295784	1.0
26	-95.32500458	0	0	-1.055774331	-0.7693184614	20.70487404	1.0
[RightHandMiddle2]
24	-36.98199844	0	0	-0.8474269509	-2.6721313	35.18577957	1.0
25	-36.98199844	0	0	-0.844178915	-2.667529583	35.11611938	1.0
26	-36.98199844	0	0	-0.8468693495	-2.67134285	35.1738205	1.0
[RightHandMiddle3]
24	-29.50900078	0	0	-0.2909384966	-1.619035602	20.39801788	1.0
25	-29.50900078	0	0	-0.2889789939	-1.613778472	20.32867622	1.0
26	-29.50900078	0	0	-0.2906046808	-1.618148208	20.38628197	1.0
[RightHandMiddle4]
24	-28.3390007	0	0.0009999999311	0	0	0	1.0
25	-28.3390007	0	0.0009999999311	0	0	0	1.0
26	-28.3390007	0	0.0009999999311	0	0	0	1.0
[RightHandIndex1]
24	-91.08300018	-5.167999744	22.60099792	-0.6017257571	3.828898907	18.94399452	1.0
25	-91.08300018	-5.167999744	22.60099792	-0.6615952253	3.789661169	19.75820351	1.0
26	-91.08300018	-5.167999744	22.60099792	-0.9057692289	3.880728722	22.22389984	1.0
[RightHandIndex2]
24	-36.76399994	0	0	-0.3950095177	-1.873122334	23.81466866	1.0
25	-36.76399994	0	0	-0.3922243416	-1.866780758	23.72903824	1.0
26	-36.76399994	0	0	-0.3866194189	-1.853993297	23.55647659	1.0
[RightHandIndex3]
24	-28.83100128	0	0	-0.07846675068	-0.8497325182	10.55155849	1.0
25	-28.83100128	0	0	-0.07720305771	-0.8429183364	10.46601582	1.0
26	-28.83100128	0	0	-0.07468347251	-0.8291867375	10.2935915	1.0
[RightHandIndex4]
24	-23.92700005	0	0	0	0	0	1.0
25	-23.92700005	0	0	0	0	0	1.0
26	-23.92700005	0	0	0	0	0	1.0
[RightHandThumb1]
24	-24.64799881	-15.72700024	26.82600021	12.78110313	-2.167885065	-4.410644054	1.0
25	-24.64799881	-15.72700024	26.82600021	12.78110313	-2.167885065	-4.410644054	1.0
26	-24.64799881	-15.72700024	26.82600021	12.78110313	-2.167885065	-4.410644054	1.0
[RightHandThumb2]
24	-32.29800034	-18.64699936	18.64699936	9.904275894	-18.19115257	-10.34862709	1.0
25	-32.29800034	-18.64699936	18.64699936	10.43282127	-17.16926765	-10.00872231	1.0
26	-32.29800034	-18.64699936	18.64699936	11.19549561	-17.09298134	-9.456114769	1.0
[RightHandThumb3]
24	-26.52600098	-15.31399918	15.31399918	-15.45105648	-4.929506302	-11.21964359	1.0
25	-26.52600098	-15.31399918	15.31399918	-15.47585392	-4.870804787	-11.23816109	1.0
26	-26.52600098	-15.31399918	15.31399918	-15.53784084	-4.724086285	-11.28447533	1.0
[RightHandThumb4]
24	-19.54599953	-11.28499985	11.28499985	0	0	0	1.0
25	-19.54599953	-11.28499985	11.28499985	0	0	0	1.0
26	-19.54599953	-11.28499985	11.28499985	0	0	0	1.0
[LeftUpLeg]
24	82.07800293	-67.51699829	-15.99599934	21.84039879	14.82403278	1.846161366	1.0
25	82.07800293	-67.51699829	-15.99599934	23.70624924	16.34342957	4.456421852	1.0
26	82.07800293	-67.51699829	-15.99599934	17.50605202	17.15418243	6.564874172	1.0
[LeftLeg]
24	0	-443.7049866	2.845999956	1.883202672	-3.599808693	8.779882431	1.0
25	0	-443.7049866	2.845999956	5.982801914	-8.097826004	8.872615814	1.0
26	0	-443.7049866	2.845999956	24.40180969	-12.99526405	4.456382275	1.0
[LeftFoot]
24	0	-444.2789917	-29.8219986	-13.9280386	-18.42379761	-2.624336004	1.0
25	0	-444.2789917	-29.8219986	-5.458022118	-14.06088161	-2.722700119	1.0
26	0	-444.2789917	-29.8219986	1.788885474	-8.324933052	-1.194791555	1.0
[LeftToeBase]
24	0	-87.28699493	107.1060028	-14.77023792	-2.205263854e-06	-2.210035518e-06	1.0
25	0	-87.28699493	107.1060028	-24.25759697	-2.214875821e-07	-7.036213105e-07	1.0
26	0	-87.28699493	107.1060028	-28.83745575	-5.893033403e-07	-5.360555555e-09	1.0
[RightUpLeg]
24	-82.07800293	-67.51699829	-15.99599934	-36.19491577	-7.778786659	-0.5367910862	1.0
25	-82.07800293	-67.51699829	-15.99599934	-38.21772385	-7.225244522	0.2843435109	1.0
26	-82.07800293	-67.51699829	-15.99599934	-39.18585587	-7.422904015	0.5452390909	1.0
[RightLeg]
24	0	-443.7049866	2.861999989	12.61269855	-0.1763390303	-3.689802647	1.0
25	0	-443.7049866	2.861999989	23.0248661	0.3107910156	-2.051300526	1.0
26	0	-443.7049866	2.861999989	31.26211929	0.5417711735	0.4719108045	1.0
[RightFoot]
24	0	-444.2770081	-29.83799934	2.243578911	-0.07032030076	1.673470378	1.0
25	0	-444.2770081	-29.83799934	4.77139473	0.07155088335	0.05290292948	1.0
26	0	-444.2770081	-29.83799934	3.174506187	0.07000161707	-1.448111534	1.0
[RightToeBase]
24	0	-87.28699493	107.1060028	-10.9508791	7.854579849e-07	3.854203499e-07	1.0
25	0	-87.28699493	107.1060028	-11.84811401	6.385353686e-07	-3.910988653e-07	1.0
26	0	-87.28699493	107.1060028	-8.353032112	1.196883801e-07	3.7729572e-07	1.0
[EndOfFile]
